<svg xmlns="http://www.w3.org/2000/svg" viewBox="0 0 512 512">
  <rect width="512" height="512" rx="80" fill="#10b981"/>
  <g fill="white">
    <path d="M256 120c-75 0-136 61-136 136s61 136 136 136 136-61 136-136-61-136-136-136zm0 240c-57.3 0-104-46.7-104-104s46.7-104 104-104 104 46.7 104 104-46.7 104-104 104z"/>
    <circle cx="256" cy="256" r="48"/>
    <path d="M352 152l28-28c6-6 6-16 0-22s-16-6-22 0l-28 28c-6 6-6 16 0 22s16 6 22 0zM160 360l-28 28c-6 6-6 16 0 22s16 6 22 0l28-28c6 6 6-16 0-22s-16-6-22 0z"/>
    <rect x="240" y="64" width="32" height="48" rx="8"/>
    <rect x="240" y="400" width="32" height="48" rx="8"/>
    <rect x="64" y="240" width="48" height="32" rx="8"/>
    <rect x="400" y="240" width="48" height="32" rx="8"/>
  </g>
</svg>
